<mxfile host="app.diagrams.net" modified="2024-04-26T12:57:16.257Z" agent="Mozilla/5.0 (Windows NT 10.0; Win64; x64) AppleWebKit/537.36 (KHTML, like Gecko) Chrome/124.0.0.0 Safari/537.36" etag="dr9SlRFEVDbZYnyT9M_8" version="24.3.0" type="device">
  <diagram name="PÃ¡gina-1" id="9Hq9HzE4tBzh1AJALm3u">
    <mxGraphModel dx="1390" dy="910" grid="0" gridSize="10" guides="1" tooltips="1" connect="1" arrows="1" fold="1" page="0" pageScale="1" pageWidth="827" pageHeight="1169" math="0" shadow="0">
      <root>
        <mxCell id="0" />
        <mxCell id="1" parent="0" />
        <mxCell id="3xmzsAR4BLAJiitdu2Wv-2" value="" style="rounded=0;whiteSpace=wrap;html=1;" vertex="1" parent="1">
          <mxGeometry x="-172" y="-3" width="508" height="214" as="geometry" />
        </mxCell>
        <mxCell id="3xmzsAR4BLAJiitdu2Wv-3" value="" style="ellipse;whiteSpace=wrap;html=1;" vertex="1" parent="1">
          <mxGeometry x="-134" y="24" width="170" height="160" as="geometry" />
        </mxCell>
        <mxCell id="3xmzsAR4BLAJiitdu2Wv-4" value="Text" style="text;strokeColor=none;fillColor=none;html=1;align=center;verticalAlign=middle;whiteSpace=wrap;rounded=0;fontSize=16;" vertex="1" parent="1">
          <mxGeometry x="154" y="89" width="60" height="30" as="geometry" />
        </mxCell>
        <mxCell id="3xmzsAR4BLAJiitdu2Wv-5" value="" style="rounded=0;whiteSpace=wrap;html=1;" vertex="1" parent="1">
          <mxGeometry x="-172" y="211" width="509" height="227" as="geometry" />
        </mxCell>
        <mxCell id="3xmzsAR4BLAJiitdu2Wv-6" value="" style="rounded=0;whiteSpace=wrap;html=1;" vertex="1" parent="1">
          <mxGeometry x="-103" y="281" width="160" height="80" as="geometry" />
        </mxCell>
      </root>
    </mxGraphModel>
  </diagram>
</mxfile>
